<?xml version="1.0" encoding="UTF-8"?> <svg xmlns="http://www.w3.org/2000/svg" id="Logo_2" viewBox="0 0 1203.28046 983"><defs><style>.cls-1{fill:#8224e3;}.cls-2{fill:#d7bae2;}</style></defs><g><path class="cls-2" d="M789.4784,382.34416l1.30688,4.87708c.11182,.41736,.18994,.83374,.24573,1.24829-.05579-.41455-.13391-.83105-.24573-1.24841l-1.30688-4.87695Z"></path><path class="cls-2" d="M644.83949,151.86455h-46.20227c-2.53418,0-4.83508-.97412-6.56995-2.55811,1.73474,1.58398,4.03564,2.55811,6.56995,2.55811h46.20227Z"></path><path class="cls-2" d="M786.22071,398.19633c-.24866,.14355-.50256,.27747-.76526,.39917,.2627-.1217,.5166-.25562,.76526-.39917Z"></path><path class="cls-2" d="M913.46742,111.21525v40.64929h-165.90686c-10.00916,0-17.29443,9.49426-14.70386,19.16235l53.22913,198.65552c-29.37061-109.62061,52.95178-217.2627,166.28296-217.80518l-10.89526-40.66211-28.0061,.00012"></path><path class="cls-2" d="M788.39442,396.51018c.01904-.0199,.03479-.0426,.05371-.06262-.0188,.02002-.03467,.04272-.05371,.06262Z"></path></g><path class="cls-1" d="M913.46736,151.86458v-40.64932h-314.83015c-5.38911,0-9.75784,4.36874-9.75784,9.75784v21.13363c0,5.38911,4.36874,9.75784,9.75784,9.75784h46.20228c16.3472,0,30.65631,10.97979,34.88724,26.76998l57.24352,213.63764c1.14306,4.26598,5.0089,7.23235,9.42536,7.23235h34.96426c6.41604,0,11.08594-6.08592,9.42536-12.28334l-57.92855-216.19423c-2.59056-9.66818,4.69464-19.16241,14.70387-19.16241h165.90681Z"></path><g><path class="cls-2" d="M112.85262,926.79178c5.69974-.5559,10.88048-1.98833,15.45226-4.27653,6.04804-3.02171,10.80897-7.32131,14.149-12.78346,3.33542-5.45523,5.02389-11.95768,5.02389-19.32513,0-7.00991-1.68847-13.36013-5.02158-18.87302-3.33311-5.5129-8.08712-9.93244-14.13285-13.13638-6.03651-3.19702-13.12023-4.81629-21.05281-4.81629h-29.20913c-.10149-.00231-.19607-.00231-.28833,0h-13.7661c-2.33894,0-4.23963,1.90068-4.23963,4.23963v117.83299c0,2.33894,1.90068,4.23963,4.23963,4.23963h13.7661c2.33894,0,4.23963-1.90068,4.23963-4.23963v-48.59654h4.7148c.1038,.74505,.41058,1.4555,.9019,2.06676l39.64211,49.18934h.00231c.80963,1.0057,2.01371,1.58006,3.30082,1.58006h17.09229c1.65848,0,3.13013-.93189,3.83596-2.43121,.70814-1.50163,.49132-3.22931-.56282-4.5072l-38.08743-46.16302Zm12.38211-36.02759c0,5.52443-1.67002,9.884-4.96391,12.95646-3.31235,3.0863-8.0456,4.65252-14.06827,4.65252h-24.18985v-35.21796h24.36747c6.00421,0,10.69594,1.70462,13.94602,5.06541,3.25699,3.37002,4.90855,7.58888,4.90855,12.54357Z"></path><path class="cls-2" d="M322.38193,959.42859h-59.0918v-34.14998h53.04145c2.33894,0,4.23963-1.90068,4.23963-4.23963v-11.27261c0-2.33894-1.90068-4.23963-4.23963-4.23963h-53.04145v-31.48349h58.20143c2.33894,0,4.23963-1.90068,4.23963-4.23963v-11.98305c0-2.33894-1.90068-4.23963-4.23963-4.23963h-76.20715c-2.33894,0-4.23963,1.90068-4.23963,4.23963v117.83299c0,2.33894,1.90068,4.23963,4.23963,4.23963h77.09752c2.33894,0,4.23963-1.90068,4.23963-4.23963v-11.98536c0-2.33894-1.90068-4.23963-4.23963-4.23963Z"></path><path class="cls-2" d="M508.75246,949.95518c-1.61235-1.61235-4.18196-1.6631-5.84967-.11764-3.11629,2.88793-6.7954,5.27301-10.93122,7.08603-5.14614,2.2536-11.51942,3.39539-18.94453,3.39539-6.02267,0-11.59092-1.05414-16.55714-3.13474-4.9593-2.07599-9.31657-5.08617-12.94724-8.9475-3.6399-3.87287-6.47938-8.52769-8.44004-13.84222-1.96988-5.32375-2.96866-11.26338-2.96866-17.65742,0-6.39173,.99878-12.33367,2.96866-17.65972,1.96296-5.30991,4.80245-9.96704,8.44004-13.83991,3.63298-3.86133,7.99024-6.87152,12.94954-8.94981,4.96391-2.07829,10.53448-3.13243,16.55484-3.13243,6.83922,0,12.91494,1.11411,18.06108,3.30774,4.13352,1.7692,7.81032,4.12429,10.92892,7.0053,1.67232,1.53854,4.23732,1.48779,5.84506-.12456l9.08821-9.08821c.82578-.82578,1.2825-1.96988,1.25251-3.13935-.02999-1.1441-.50977-2.19363-1.34708-2.9479-5.12538-4.62714-10.94737-8.43081-17.31142-11.30721-7.44126-3.35848-16.36339-5.06079-26.51727-5.06079-9.09051,0-17.6182,1.7-25.3501,5.05618-7.72036,3.35156-14.54805,8.02484-20.29853,13.89066-5.74818,5.86812-10.24153,12.82268-13.35551,20.66529-3.11167,7.8357-4.68712,16.35647-4.68712,25.32473,0,8.97057,1.57544,17.49134,4.68712,25.32473,3.11398,7.84262,7.60503,14.82254,13.35321,20.75064,5.75048,5.9304,12.58278,10.60598,20.30545,13.89527,7.72498,3.2939,16.25267,4.96391,25.34549,4.96391,10.03393,0,19.06909-1.7,26.85865-5.05157,6.63624-2.85794,12.61969-6.68698,17.78659-11.38794,.87191-.79349,1.3886-1.91913,1.41628-3.09091,.02768-1.16717-.41289-2.26283-1.23637-3.08861l-9.09974-9.09743Z"></path><path class="cls-2" d="M662.20015,926.79178c5.69974-.5559,10.88048-1.98833,15.45226-4.27653,6.04804-3.02171,10.80897-7.32131,14.149-12.78346,3.33542-5.45523,5.02389-11.95768,5.02389-19.32513,0-7.00991-1.68847-13.36013-5.02158-18.87302s-8.08712-9.93244-14.13285-13.13638c-6.03651-3.19702-13.12023-4.81629-21.05281-4.81629h-29.20913c-.10149-.00231-.19607-.00231-.28833,0h-13.7661c-2.33894,0-4.23963,1.90068-4.23963,4.23963v117.83299c0,2.33894,1.90068,4.23963,4.23963,4.23963h13.7661c2.33894,0,4.23963-1.90068,4.23963-4.23963v-48.59654h4.7148c.1038,.74505,.41058,1.4555,.9019,2.06676l39.64211,49.18934h.00231c.80963,1.0057,2.01371,1.58006,3.30082,1.58006h17.09229c1.65848,0,3.13013-.93189,3.83596-2.43121,.70814-1.50163,.49132-3.22931-.56282-4.5072l-38.08743-46.16302Zm12.38211-36.02759c0,5.52443-1.67002,9.884-4.96391,12.95646-3.31235,3.0863-8.0456,4.65252-14.06827,4.65252h-24.18985v-35.21796h24.36747c6.00421,0,10.69594,1.70462,13.94602,5.06541,3.25699,3.37002,4.90855,7.58888,4.90855,12.54357Z"></path><path class="cls-2" d="M884.7136,853.58097h-13.76379c-2.33894,0-4.23963,1.90068-4.23963,4.23963v73.85898c0,5.74818-1.22022,10.83665-3.62375,15.12933-2.39892,4.28345-5.69743,7.64194-9.80327,9.97857-4.11276,2.34356-8.93135,3.53148-14.322,3.53148-5.27993,0-10.10083-1.19023-14.33123-3.5361-4.22579-2.33894-7.61195-5.69743-10.06623-9.98319-2.45889-4.28576-3.70679-9.4342-3.70679-15.29771v-73.68137c0-2.33894-1.90068-4.23963-4.23963-4.23963h-13.7661c-2.33894,0-4.23963,1.90068-4.23963,4.23963v73.85898c0,9.48726,2.22592,18.10952,6.61548,25.62229,4.38725,7.51507,10.45374,13.52159,18.02879,17.84887,7.57043,4.32728,16.22037,6.5209,25.70533,6.5209,9.60259,0,18.25253-2.19363,25.70763-6.52321s13.42933-10.30381,17.75891-17.75891c4.32958-7.4574,6.52552-16.04737,6.52552-25.53233v-74.0366c0-2.33894-1.90068-4.23963-4.23963-4.23963Z"></path><rect class="cls-2" x="984.8315" y="853.58097" width="22.24535" height="126.31224" rx="4.23963" ry="4.23963"></rect><path class="cls-2" d="M1194.2547,853.58097h-94.88642c-2.33894,0-4.23963,1.90068-4.23963,4.23963v11.98305c0,2.33894,1.90068,4.23963,4.23963,4.23963h36.32054v101.61031c0,2.33894,1.90068,4.23963,4.23963,4.23963h13.76379c2.33894,0,4.23963-1.90068,4.23963-4.23963v-101.61031h36.32284c2.33894,0,4.23963-1.90068,4.23963-4.23963v-11.98305c0-2.33894-1.90068-4.23963-4.23963-4.23963Z"></path></g><g><path class="cls-1" d="M169.77617,654.45004v-37.32854c0-1.84993-1.49702-3.34695-3.34695-3.34695H4.13091c-1.84993,0-3.34695,1.49702-3.34695,3.34695v37.32854c0,1.84993,1.49702,3.34695,3.34695,3.34695H60.56314v150.2945c0,1.84993,1.49702,3.34695,3.34695,3.34695h43.00983c1.84993,0,3.34695-1.49702,3.34695-3.34695v-150.2945h56.16235c1.84993,0,3.34695-1.49702,3.34695-3.34695Z"></path><path class="cls-1" d="M283.15501,615.89898c-.50285-1.2825-1.73922-2.12443-3.11629-2.12443h-38.68024c-1.37476,0-2.60882,.83962-3.11398,2.11751l-75.46903,190.96999c-.40597,1.02877-.2768,2.19593,.346,3.11167,.6228,.91805,1.65848,1.46472,2.76798,1.46472h44.09164c1.40244,0,2.65496-.87191,3.13935-2.18671l11.87695-32.16626h70.05531l11.59323,32.14088c.47748,1.32863,1.73691,2.21208,3.14858,2.21208h45.17346c1.10719,0,2.14288-.54668,2.76568-1.46011,.6228-.91574,.75428-2.07829,.35061-3.10937l-74.92927-190.96999Zm-42.90141,119.86976l20.18089-54.65842,19.71495,54.65842h-39.89585Z"></path><path class="cls-1" d="M551.88684,613.77455h-43.00983c-1.84993,0-3.34695,1.49702-3.34695,3.34695v106.02524l-84.33579-108.05509c-.09688-.12687-.20068-.24451-.3137-.35522-.21683-.21452-.46133-.39674-.72198-.54206l-.00461-.00231c-.39444-.21683-.83501-.35753-1.29864-.40366h-.00461c-.11533-.01153-.24451-.01153-.34369-.01384h-30.00031c-1.84993,0-3.34695,1.49702-3.34695,3.34695v190.96999c0,1.84993,1.49702,3.34695,3.34695,3.34695h42.73764c1.84993,0,3.34695-1.49702,3.34695-3.34695v-104.54898l82.9841,106.57422c.09227,.12456,.19376,.23989,.30217,.3483,.21913,.21683,.46364,.40136,.7266,.54898,.39213,.21683,.82809,.35984,1.28711,.40828,.11533,.01153,.23067,.01615,.3483,.01615h31.64726c1.84993,0,3.34695-1.49702,3.34695-3.34695v-190.96999c0-1.84993-1.49702-3.34695-3.34695-3.34695Z"></path><path class="cls-1" d="M752.58629,641.3275c-9.39499-8.83448-20.50844-15.71291-33.02894-20.44155-12.49052-4.71941-26.31197-7.11141-41.08146-7.11141h-76.82072c-1.84993,0-3.34695,1.49702-3.34695,3.34695v190.96999c0,1.84993,1.49702,3.34695,3.34695,3.34695h77.36279c14.5988,0,28.33721-2.44044,40.83235-7.25673,12.5182-4.8209,23.58321-11.74316,32.88593-20.57764,9.29581-8.82986,16.65172-19.39202,21.86014-31.38891,5.21073-12.00843,7.85184-25.33626,7.85184-39.60982,0-14.6357-2.64112-28.09963-7.85415-40.02271-5.20842-11.90002-12.61277-22.41604-22.00776-31.25513Zm-27.68213,41.63967c4.48413,8.21629,6.75849,18.09799,6.75849,29.36829,0,11.46636-2.23284,21.44494-6.63624,29.66123-4.35726,8.12403-10.59445,14.44887-18.53856,18.7969-8.02253,4.39417-17.62974,6.6224-28.55173,6.6224h-30.19638v-109.619h30.19638c10.7513,0,20.27316,2.18671,28.30492,6.50014,7.9418,4.265,14.22051,10.54832,18.66312,18.67004Z"></path><path class="cls-1" d="M956.81952,767.95806h-91.59944v-36.04604h81.86076c1.84993,0,3.34695-1.49702,3.34695-3.34695v-35.97684c0-1.84993-1.49702-3.34695-3.34695-3.34695h-81.86076v-31.98634h89.97556c1.84993,0,3.34695-1.49702,3.34695-3.34695v-36.78648c0-1.84993-1.49702-3.34695-3.34695-3.34695h-136.06015c-1.84993,0-3.34695,1.49702-3.34695,3.34695v190.96999c0,1.84993,1.49702,3.34695,3.34695,3.34695h137.68403c1.84993,0,3.34695-1.49702,3.34695-3.34695v-36.78648c0-1.84993-1.49702-3.34695-3.34695-3.34695Z"></path><path class="cls-1" d="M1194.85213,613.77455h-30.83532c-1.14179,0-2.20516,.58128-2.82103,1.54315l-64.14798,100.27245-64.38095-100.27706c-.61588-.95957-1.67694-1.53854-2.81642-1.53854h-30.83762c-1.84993,0-3.34695,1.49702-3.34695,3.34695v190.96999c0,1.84993,1.49702,3.34695,3.34695,3.34695h42.46776c1.84993,0,3.34695-1.49702,3.34695-3.34695v-94.2913l35.22026,54.98135c.61588,.95957,1.67694,1.54084,2.81873,1.54084h28.13192c1.14179,0,2.20285-.58128,2.81873-1.54084l35.22026-54.98135v94.2913c0,1.84993,1.49702,3.34695,3.34695,3.34695h42.46776c1.84993,0,3.34695-1.49702,3.34695-3.34695v-190.96999c0-1.84993-1.49702-3.34695-3.34695-3.34695Z"></path></g><circle class="cls-2" cx="298.57959" cy="333.22745" r="155.34433"></circle><path class="cls-2" d="M973.22904,177.88254c-85.65751,0-155.34606,69.6874-155.34606,155.34491s69.68856,155.34491,155.34606,155.34491,155.34376-69.6874,155.34376-155.34491-69.68625-155.34491-155.34376-155.34491Z"></path><path class="cls-1" d="M563.40049,387.22114l-55.99339-208.97182c-3.56666-13.31212,6.46439-26.38478,20.24606-26.38478h25.31896c5.38949,0,9.75829-4.3688,9.75829-9.75786v-21.13369c0-5.38906-4.3688-9.75771-9.75829-9.75771H231.97964c-5.38949,0-9.75829,4.36865-9.75829,9.75771v21.13369c0,5.38906,4.3688,9.75786,9.75829,9.75786h81.94841c77.41238,0,145.17315,51.99495,165.20873,126.76953l30.44895,113.63805c1.14295,4.26601,5.00889,7.23236,9.42555,7.23236h34.96422c6.41595,0,11.08577-6.08596,9.42498-12.28335Z"></path><path class="cls-2" d="M991.58215,34.77962V13.64599c0-5.38911-4.36874-9.75784-9.75784-9.75784h-172.51577c-5.38911,0-9.75784,4.36874-9.75784,9.75784v21.13363c0,5.38911,4.36874,9.75784,9.75784,9.75784h34.26458c16.3472,0,30.65631,10.97979,34.88724,26.76998l59.1814,220.86999h55.16837l-63.4329-236.73694c-1.47398-5.501,2.67116-10.90303,8.36621-10.90303h44.08086c5.38911,0,9.75784-4.36874,9.75784-9.75784Z"></path></svg> 